<?xml version="1.0" encoding="UTF-8" standalone="no"?>
<svg
   width="21"
   height="21"
   viewBox="0 0 21 21"
   fill="none"
   version="1.1"
   id="svg399"
   sodipodi:docname="buttonfast.svg"
   inkscape:version="1.1.2 (b8e25be8, 2022-02-05)"
   xmlns:inkscape="http://www.inkscape.org/namespaces/inkscape"
   xmlns:sodipodi="http://sodipodi.sourceforge.net/DTD/sodipodi-0.dtd"
   xmlns="http://www.w3.org/2000/svg"
   xmlns:svg="http://www.w3.org/2000/svg">
  <sodipodi:namedview
     id="namedview401"
     pagecolor="#ffffff"
     bordercolor="#666666"
     borderopacity="1.0"
     inkscape:pageshadow="2"
     inkscape:pageopacity="0.0"
     inkscape:pagecheckerboard="0"
     showgrid="false"
     inkscape:zoom="26.904762"
     inkscape:cx="10.5"
     inkscape:cy="10.5"
     inkscape:window-width="1296"
     inkscape:window-height="787"
     inkscape:window-x="0"
     inkscape:window-y="25"
     inkscape:window-maximized="0"
     inkscape:current-layer="svg399" />
  <path
     d="m 15.6646,20.0731 c -0.3147,-0.0015 -0.1648,-8e-4 -0.1648,-8e-4 -0.1172,-5e-4 -0.2265,-0.0011 -0.2265,-0.0011 L 14.9998,20.07 4.99995,20.0232 4.95034,20.0229 c 0,0 -0.08711,-4e-4 -0.19649,-9e-4 -0.1328,-6e-4 -0.19445,-9e-4 -0.36025,-0.0017 -0.16579,-7e-4 -0.39364,-0.0018 -0.39364,-0.0018 L 3.8984,20.018 3.74996,20.0173 2.49998,20.0115 C 1.83699,20.0084 1.20241,19.7245 0.735853,19.2222 0.269398,18.7199 0.00917443,18.0404 0.0124838,17.3331 L 0.0811132,2.66664 C 0.0844224,1.95945 0.350994,1.28239 0.822129,0.784433 1.29336,0.28658 1.93057,0.00859812 2.59356,0.0117005 L 17.5934,0.0818897 C 18.2564,0.0849922 18.891,0.368925 19.3575,0.871166 19.824,1.37351 20.0842,2.05303 20.0809,2.76022 L 20.0123,17.4267 c -0.0033,0.7073 -0.2699,1.3843 -0.7411,1.8822 -0.4712,0.4979 -1.1084,0.7759 -1.7714,0.7728 l -1.25,-0.0059 -0.25,-0.0012 c 0,0 -0.1695,-7e-4 -0.3352,-0.0015 z M 17.501,15.088 c 0.7071,-3e-4 1.287,-0.5605 1.3116,-1.2672 L 18.8275,13.3941 18.8309,2.75438 C 18.8326,2.40078 18.7025,2.06097 18.4692,1.80985 18.236,1.55872 17.9187,1.41676 17.5872,1.41521 L 2.58732,1.34502 C 2.25583,1.34347 1.93717,1.48246 1.70161,1.73138 1.46604,1.98031 1.33275,2.31889 1.3311,2.67249 l -0.06192,10.72711 -9e-5,0.2917 c -2.1e-4,0.7258 0.58819,1.3142 1.31395,1.314 v 0 L 9.5,15 Z"
     fill="#61656f"
     id="path388" />
  <defs
     id="defs397">
    <clipPath
       id="clip0_1_27">
      <rect
         width="20"
         height="20"
         fill="white"
         transform="translate(19.9998 20.0934) rotate(-179.732)"
         id="rect394" />
    </clipPath>
  </defs>
  <ellipse
     style="fill:#ff0000;fill-rule:evenodd"
     id="path1049"
     cx="9.9610624"
     cy="8.0283184"
     rx="4.3115044"
     ry="3.9026549" />
</svg>
